<svg width="200" height="200" viewBox="0 0 200 200" fill="none" xmlns="http://www.w3.org/2000/svg">
  <defs>
    <linearGradient id="grad1" x1="0%" y1="0%" x2="100%" y2="100%">
      <stop offset="0%" style="stop-color:#10b981;stop-opacity:1" />
      <stop offset="50%" style="stop-color:#06b6d4;stop-opacity:1" />
      <stop offset="100%" style="stop-color:#3b82f6;stop-opacity:1" />
    </linearGradient>
    <linearGradient id="grad2" x1="100%" y1="0%" x2="0%" y2="100%">
      <stop offset="0%" style="stop-color:#f59e0b;stop-opacity:1" />
      <stop offset="50%" style="stop-color:#06b6d4;stop-opacity:1" />
      <stop offset="100%" style="stop-color:#10b981;stop-opacity:1" />
    </linearGradient>
    <linearGradient id="grad3" x1="0%" y1="100%" x2="100%" y2="0%">
      <stop offset="0%" style="stop-color:#3b82f6;stop-opacity:1" />
      <stop offset="100%" style="stop-color:#10b981;stop-opacity:1" />
    </linearGradient>
    <filter id="glow">
      <feGaussianBlur stdDeviation="3" result="coloredBlur"/>
      <feMerge>
        <feMergeNode in="coloredBlur"/>
        <feMergeNode in="SourceGraphic"/>
      </feMerge>
    </filter>
  </defs>

  <!-- Outer geometric frame -->
  <path d="M 100 20 L 170 60 L 170 140 L 100 180 L 30 140 L 30 60 Z"
        stroke="url(#grad1)"
        stroke-width="3"
        fill="none"
        opacity="0.4"/>

  <!-- Main hexagonal nodes network -->
  <!-- Top node -->
  <polygon points="100,35 115,44 115,62 100,71 85,62 85,44"
           fill="url(#grad1)"
           opacity="0.9"/>

  <!-- Left nodes -->
  <polygon points="50,70 65,79 65,97 50,106 35,97 35,79"
           fill="url(#grad2)"
           opacity="0.8"/>

  <!-- Right nodes -->
  <polygon points="150,70 165,79 165,97 150,106 135,97 135,79"
           fill="url(#grad2)"
           opacity="0.8"/>

  <!-- Center main node - larger and glowing -->
  <polygon points="100,85 120,97 120,121 100,133 80,121 80,97"
           fill="url(#grad1)"
           filter="url(#glow)"/>

  <!-- Bottom nodes -->
  <polygon points="65,130 80,139 80,157 65,166 50,157 50,139"
           fill="url(#grad3)"
           opacity="0.8"/>

  <polygon points="135,130 150,139 150,157 135,166 120,157 120,139"
           fill="url(#grad3)"
           opacity="0.8"/>

  <!-- Connecting lines (data streams) -->
  <line x1="100" y1="71" x2="100" y2="85"
        stroke="url(#grad1)"
        stroke-width="3"
        opacity="0.6"/>

  <line x1="65" y1="88" x2="80" y2="97"
        stroke="url(#grad2)"
        stroke-width="3"
        opacity="0.6"/>

  <line x1="135" y1="88" x2="120" y2="97"
        stroke="url(#grad2)"
        stroke-width="3"
        opacity="0.6"/>

  <line x1="85" y1="121" x2="72" y2="130"
        stroke="url(#grad3)"
        stroke-width="3"
        opacity="0.6"/>

  <line x1="115" y1="121" x2="128" y2="130"
        stroke="url(#grad3)"
        stroke-width="3"
        opacity="0.6"/>

  <!-- Animated data particles -->
  <circle r="4" fill="#10b981" opacity="0">
    <animateMotion dur="2s" repeatCount="indefinite"
                   path="M 100 71 L 100 85"/>
    <animate attributeName="opacity"
             values="0;1;1;0"
             dur="2s"
             repeatCount="indefinite"/>
  </circle>

  <circle r="4" fill="#f59e0b" opacity="0">
    <animateMotion dur="2.5s" repeatCount="indefinite"
                   path="M 65 88 L 80 97"/>
    <animate attributeName="opacity"
             values="0;1;1;0"
             dur="2.5s"
             repeatCount="indefinite"/>
  </circle>

  <circle r="4" fill="#06b6d4" opacity="0">
    <animateMotion dur="2.2s" repeatCount="indefinite"
                   path="M 135 88 L 120 97"/>
    <animate attributeName="opacity"
             values="0;1;1;0"
             dur="2.2s"
             repeatCount="indefinite"/>
  </circle>

  <!-- Inner glow in center -->
  <circle cx="100" cy="109" r="15" fill="url(#grad1)" opacity="0.3" filter="url(#glow)"/>
</svg>
